<?xml version="1.0" encoding="UTF-8" standalone="no"?>
<!DOCTYPE svg PUBLIC "-//W3C//DTD SVG 1.1//EN"
 "http://www.w3.org/Graphics/SVG/1.1/DTD/svg11.dtd">
<!-- Generated by graphviz version 2.38.0 (20140413.2041)
 -->
<!-- Title: SLNet::NatPunchthroughDebugInterface Pages: 1 -->
<svg width="350pt" height="248pt"
 viewBox="0.00 0.00 349.50 248.00" xmlns="http://www.w3.org/2000/svg" xmlns:xlink="http://www.w3.org/1999/xlink">
<g id="graph0" class="graph" transform="scale(1 1) rotate(0) translate(4 244)">
<title>SLNet::NatPunchthroughDebugInterface</title>
<!-- Node1 -->
<g id="node1" class="node"><title>Node1</title>
<polygon fill="#bfbfbf" stroke="black" points="87,-149.5 87,-239.5 264,-239.5 264,-149.5 87,-149.5"/>
<text text-anchor="start" x="95" y="-227.5" font-family="Helvetica,sans-Serif" font-size="10.00">SLNet::NatPunchthroughDebug</text>
<text text-anchor="middle" x="175.5" y="-216.5" font-family="Helvetica,sans-Serif" font-size="10.00">Interface</text>
<polyline fill="none" stroke="black" points="87,-209.5 264,-209.5 "/>
<text text-anchor="middle" x="175.5" y="-197.5" font-family="Helvetica,sans-Serif" font-size="10.00"> </text>
<polyline fill="none" stroke="black" points="87,-190.5 264,-190.5 "/>
<text text-anchor="start" x="95" y="-178.5" font-family="Helvetica,sans-Serif" font-size="10.00">+ NatPunchthroughDebugInterface()</text>
<text text-anchor="start" x="95" y="-167.5" font-family="Helvetica,sans-Serif" font-size="10.00">+ ~NatPunchthroughDebugInterface()</text>
<text text-anchor="start" x="95" y="-156.5" font-family="Helvetica,sans-Serif" font-size="10.00">+ OnClientMessage()</text>
</g>
<!-- Node2 -->
<g id="node2" class="node"><title>Node2</title>
<g id="a_node2"><a xlink:href="../../db/d81/group___n_a_t___p_u_n_c_h_t_h_r_o_u_g_h___g_r_o_u_p.xhtml#d1/dae/struct_s_l_net_1_1_nat_punchthrough_debug_interface___packet_logger" target="_top" xlink:title="{SLNet::NatPunchthroughDebug\lInterface_PacketLogger\n|+ pl\l|+ NatPunchthroughDebugInterface\l_PacketLogger()\l+ ~NatPunchthroughDebugInterface\l_PacketLogger()\l+ OnClientMessage()\l}">
<polygon fill="none" stroke="black" points="0,-0.5 0,-112.5 171,-112.5 171,-0.5 0,-0.5"/>
<text text-anchor="start" x="8" y="-100.5" font-family="Helvetica,sans-Serif" font-size="10.00">SLNet::NatPunchthroughDebug</text>
<text text-anchor="middle" x="85.5" y="-89.5" font-family="Helvetica,sans-Serif" font-size="10.00">Interface_PacketLogger</text>
<polyline fill="none" stroke="black" points="0,-82.5 171,-82.5 "/>
<text text-anchor="start" x="8" y="-70.5" font-family="Helvetica,sans-Serif" font-size="10.00">+ pl</text>
<polyline fill="none" stroke="black" points="0,-63.5 171,-63.5 "/>
<text text-anchor="start" x="8" y="-51.5" font-family="Helvetica,sans-Serif" font-size="10.00">+ NatPunchthroughDebugInterface</text>
<text text-anchor="start" x="8" y="-40.5" font-family="Helvetica,sans-Serif" font-size="10.00">_PacketLogger()</text>
<text text-anchor="start" x="8" y="-29.5" font-family="Helvetica,sans-Serif" font-size="10.00">+ ~NatPunchthroughDebugInterface</text>
<text text-anchor="start" x="8" y="-18.5" font-family="Helvetica,sans-Serif" font-size="10.00">_PacketLogger()</text>
<text text-anchor="start" x="8" y="-7.5" font-family="Helvetica,sans-Serif" font-size="10.00">+ OnClientMessage()</text>
</a>
</g>
</g>
<!-- Node1&#45;&gt;Node2 -->
<g id="edge1" class="edge"><title>Node1&#45;&gt;Node2</title>
<path fill="none" stroke="midnightblue" d="M140.577,-140.727C134.531,-131.592 128.23,-122.069 122.14,-112.867"/>
<polygon fill="none" stroke="midnightblue" points="137.842,-142.937 146.28,-149.345 143.68,-139.074 137.842,-142.937"/>
</g>
<!-- Node3 -->
<g id="node3" class="node"><title>Node3</title>
<g id="a_node3"><a xlink:href="../../db/d81/group___n_a_t___p_u_n_c_h_t_h_r_o_u_g_h___g_r_o_u_p.xhtml#d5/d5d/struct_s_l_net_1_1_nat_punchthrough_debug_interface___printf" target="_top" xlink:title="{SLNet::NatPunchthroughDebug\lInterface_Printf\n||+ OnClientMessage()\l}">
<polygon fill="none" stroke="black" points="189.5,-22.5 189.5,-90.5 341.5,-90.5 341.5,-22.5 189.5,-22.5"/>
<text text-anchor="start" x="197.5" y="-78.5" font-family="Helvetica,sans-Serif" font-size="10.00">SLNet::NatPunchthroughDebug</text>
<text text-anchor="middle" x="265.5" y="-67.5" font-family="Helvetica,sans-Serif" font-size="10.00">Interface_Printf</text>
<polyline fill="none" stroke="black" points="189.5,-60.5 341.5,-60.5 "/>
<text text-anchor="middle" x="265.5" y="-48.5" font-family="Helvetica,sans-Serif" font-size="10.00"> </text>
<polyline fill="none" stroke="black" points="189.5,-41.5 341.5,-41.5 "/>
<text text-anchor="start" x="197.5" y="-29.5" font-family="Helvetica,sans-Serif" font-size="10.00">+ OnClientMessage()</text>
</a>
</g>
</g>
<!-- Node1&#45;&gt;Node3 -->
<g id="edge2" class="edge"><title>Node1&#45;&gt;Node3</title>
<path fill="none" stroke="midnightblue" d="M210.453,-140.682C221.596,-123.844 233.605,-105.696 243.555,-90.662"/>
<polygon fill="none" stroke="midnightblue" points="207.32,-139.074 204.72,-149.345 213.158,-142.937 207.32,-139.074"/>
</g>
</g>
</svg>
