<?xml version="1.0" encoding="UTF-8" standalone="no"?>
<!DOCTYPE svg PUBLIC "-//W3C//DTD SVG 1.1//EN"
 "http://www.w3.org/Graphics/SVG/1.1/DTD/svg11.dtd">
<!-- Generated by graphviz version 2.38.0 (20140413.2041)
 -->
<!-- Title: Graphical Class Hierarchy Pages: 1 -->
<svg width="423pt" height="39pt"
 viewBox="0.00 0.00 423.00 39.00" xmlns="http://www.w3.org/2000/svg" xmlns:xlink="http://www.w3.org/1999/xlink">
<g id="graph0" class="graph" transform="scale(1 1) rotate(0) translate(4 35)">
<title>Graphical Class Hierarchy</title>
<!-- Node1 -->
<g id="node1" class="node"><title>Node1</title>
<g id="a_node1"><a xlink:href="db/d6d/class_s_l_net_1_1_network_i_d_object.xhtml" target="_top" xlink:title="Unique shared ids for each object instance.">
<polygon fill="none" stroke="black" points="0,-6 0,-25 122,-25 122,-6 0,-6"/>
<text text-anchor="middle" x="61" y="-13" font-family="Helvetica,sans-Serif" font-size="10.00">SLNet::NetworkIDObject</text>
</a>
</g>
</g>
<!-- Node2 -->
<g id="node2" class="node"><title>Node2</title>
<g id="a_node2"><a xlink:href="d0/d63/group___r_e_p_l_i_c_a___m_a_n_a_g_e_r___g_r_o_u_p3.xhtml#d3/d5b/class_s_l_net_1_1_replica3" target="_top" xlink:title="Base class for your replicated objects for the ReplicaManager3 system.">
<polygon fill="none" stroke="black" points="158,-6 158,-25 245,-25 245,-6 158,-6"/>
<text text-anchor="middle" x="201.5" y="-13" font-family="Helvetica,sans-Serif" font-size="10.00">SLNet::Replica3</text>
</a>
</g>
</g>
<!-- Node1&#45;&gt;Node2 -->
<g id="edge1" class="edge"><title>Node1&#45;&gt;Node2</title>
<path fill="none" stroke="midnightblue" d="M132.485,-15.5C141.141,-15.5 149.77,-15.5 157.833,-15.5"/>
<polygon fill="midnightblue" stroke="midnightblue" points="132.345,-12.0001 122.345,-15.5 132.345,-19.0001 132.345,-12.0001"/>
</g>
<!-- Node3 -->
<g id="node3" class="node"><title>Node3</title>
<g id="a_node3"><a xlink:href="d4/d8f/class_s_l_net_1_1_replica3_composite.xhtml" target="_top" xlink:title="Use Replica3 through composition instead of inheritance by containing an instance of this templated c...">
<polygon fill="none" stroke="black" points="281,-0.5 281,-30.5 415,-30.5 415,-0.5 281,-0.5"/>
<text text-anchor="start" x="289" y="-18.5" font-family="Helvetica,sans-Serif" font-size="10.00">SLNet::Replica3Composite</text>
<text text-anchor="middle" x="348" y="-7.5" font-family="Helvetica,sans-Serif" font-size="10.00">&lt; parent_type &gt;</text>
</a>
</g>
</g>
<!-- Node2&#45;&gt;Node3 -->
<g id="edge2" class="edge"><title>Node2&#45;&gt;Node3</title>
<path fill="none" stroke="midnightblue" d="M255.076,-15.5C263.46,-15.5 272.227,-15.5 280.875,-15.5"/>
<polygon fill="midnightblue" stroke="midnightblue" points="255.073,-12.0001 245.073,-15.5 255.073,-19.0001 255.073,-12.0001"/>
</g>
</g>
</svg>
