<?xml version="1.0" encoding="UTF-8" standalone="no"?>
<!DOCTYPE svg PUBLIC "-//W3C//DTD SVG 1.1//EN"
 "http://www.w3.org/Graphics/SVG/1.1/DTD/svg11.dtd">
<!-- Generated by graphviz version 2.38.0 (20140413.2041)
 -->
<!-- Title: Graphical Class Hierarchy Pages: 1 -->
<svg width="591pt" height="66pt"
 viewBox="0.00 0.00 591.00 66.00" xmlns="http://www.w3.org/2000/svg" xmlns:xlink="http://www.w3.org/1999/xlink">
<g id="graph0" class="graph" transform="scale(1 1) rotate(0) translate(4 62)">
<title>Graphical Class Hierarchy</title>
<!-- Node1 -->
<g id="node1" class="node"><title>Node1</title>
<g id="a_node1"><a xlink:href="d1/dde/class_s_l_net_1_1_rak_net_socket2.xhtml" target="_top" xlink:title="SLNet::RakNetSocket2">
<polygon fill="none" stroke="black" points="0,-38.5 0,-57.5 118,-57.5 118,-38.5 0,-38.5"/>
<text text-anchor="middle" x="59" y="-45.5" font-family="Helvetica,sans-Serif" font-size="10.00">SLNet::RakNetSocket2</text>
</a>
</g>
</g>
<!-- Node2 -->
<g id="node2" class="node"><title>Node2</title>
<g id="a_node2"><a xlink:href="d7/d64/class_s_l_net_1_1_i_r_n_s2___berkley.xhtml" target="_top" xlink:title="SLNet::IRNS2_Berkley">
<polygon fill="none" stroke="black" points="154,-38.5 154,-57.5 270,-57.5 270,-38.5 154,-38.5"/>
<text text-anchor="middle" x="212" y="-45.5" font-family="Helvetica,sans-Serif" font-size="10.00">SLNet::IRNS2_Berkley</text>
</a>
</g>
</g>
<!-- Node1&#45;&gt;Node2 -->
<g id="edge1" class="edge"><title>Node1&#45;&gt;Node2</title>
<path fill="none" stroke="midnightblue" d="M128.571,-48C136.995,-48 145.536,-48 153.769,-48"/>
<polygon fill="midnightblue" stroke="midnightblue" points="128.381,-44.5001 118.381,-48 128.381,-51.5001 128.381,-44.5001"/>
</g>
<!-- Node3 -->
<g id="node3" class="node"><title>Node3</title>
<g id="a_node3"><a xlink:href="d1/d4f/class_s_l_net_1_1_r_n_s2___berkley.xhtml" target="_top" xlink:title="SLNet::RNS2_Berkley">
<polygon fill="none" stroke="black" points="318,-38.5 318,-57.5 431,-57.5 431,-38.5 318,-38.5"/>
<text text-anchor="middle" x="374.5" y="-45.5" font-family="Helvetica,sans-Serif" font-size="10.00">SLNet::RNS2_Berkley</text>
</a>
</g>
</g>
<!-- Node2&#45;&gt;Node3 -->
<g id="edge2" class="edge"><title>Node2&#45;&gt;Node3</title>
<path fill="none" stroke="midnightblue" d="M280.048,-48C292.681,-48 305.762,-48 317.993,-48"/>
<polygon fill="midnightblue" stroke="midnightblue" points="280.038,-44.5001 270.038,-48 280.038,-51.5001 280.038,-44.5001"/>
</g>
<!-- Node4 -->
<g id="node4" class="node"><title>Node4</title>
<g id="a_node4"><a xlink:href="d1/da2/class_s_l_net_1_1_r_n_s2___linux.xhtml" target="_top" xlink:title="SLNet::RNS2_Linux">
<polygon fill="none" stroke="black" points="479,-19.5 479,-38.5 583,-38.5 583,-19.5 479,-19.5"/>
<text text-anchor="middle" x="531" y="-26.5" font-family="Helvetica,sans-Serif" font-size="10.00">SLNet::RNS2_Linux</text>
</a>
</g>
</g>
<!-- Node3&#45;&gt;Node4 -->
<g id="edge3" class="edge"><title>Node3&#45;&gt;Node4</title>
<path fill="none" stroke="midnightblue" d="M441.266,-39.9123C453.864,-38.3631 466.878,-36.7625 478.929,-35.2806"/>
<polygon fill="midnightblue" stroke="midnightblue" points="440.776,-36.4461 431.278,-41.1406 441.631,-43.3937 440.776,-36.4461"/>
</g>
<!-- Node5 -->
<g id="node5" class="node"><title>Node5</title>
<g id="a_node5"><a xlink:href="dd/d9e/class_r_n_s2___windows___linux__360.xhtml" target="_top" xlink:title="RNS2_Windows_Linux_360">
<polygon fill="none" stroke="black" points="306,-0.5 306,-19.5 443,-19.5 443,-0.5 306,-0.5"/>
<text text-anchor="middle" x="374.5" y="-7.5" font-family="Helvetica,sans-Serif" font-size="10.00">RNS2_Windows_Linux_360</text>
</a>
</g>
</g>
<!-- Node5&#45;&gt;Node4 -->
<g id="edge4" class="edge"><title>Node5&#45;&gt;Node4</title>
<path fill="none" stroke="midnightblue" d="M453.3,-19.5677C461.866,-20.621 470.422,-21.6733 478.549,-22.6727"/>
<polygon fill="midnightblue" stroke="midnightblue" points="453.618,-16.0805 443.266,-18.3337 452.764,-23.0282 453.618,-16.0805"/>
</g>
</g>
</svg>
