<?xml version="1.0" encoding="UTF-8" standalone="no"?>
<!DOCTYPE svg PUBLIC "-//W3C//DTD SVG 1.1//EN"
 "http://www.w3.org/Graphics/SVG/1.1/DTD/svg11.dtd">
<!-- Generated by graphviz version 2.38.0 (20140413.2041)
 -->
<!-- Title: Graphical Class Hierarchy Pages: 1 -->
<svg width="348pt" height="88pt"
 viewBox="0.00 0.00 348.00 88.00" xmlns="http://www.w3.org/2000/svg" xmlns:xlink="http://www.w3.org/1999/xlink">
<g id="graph0" class="graph" transform="scale(1 1) rotate(0) translate(4 84)">
<title>Graphical Class Hierarchy</title>
<!-- Node1 -->
<g id="node1" class="node"><title>Node1</title>
<g id="a_node1"><a xlink:href="db/d81/group___n_a_t___p_u_n_c_h_t_h_r_o_u_g_h___g_r_o_u_p.xhtml#d5/db1/struct_s_l_net_1_1_nat_punchthrough_debug_interface" target="_top" xlink:title="SLNet::NatPunchthroughDebug\lInterface">
<polygon fill="none" stroke="black" points="0,-24.5 0,-54.5 152,-54.5 152,-24.5 0,-24.5"/>
<text text-anchor="start" x="8" y="-42.5" font-family="Helvetica,sans-Serif" font-size="10.00">SLNet::NatPunchthroughDebug</text>
<text text-anchor="middle" x="76" y="-31.5" font-family="Helvetica,sans-Serif" font-size="10.00">Interface</text>
</a>
</g>
</g>
<!-- Node2 -->
<g id="node2" class="node"><title>Node2</title>
<g id="a_node2"><a xlink:href="db/d81/group___n_a_t___p_u_n_c_h_t_h_r_o_u_g_h___g_r_o_u_p.xhtml#d1/dae/struct_s_l_net_1_1_nat_punchthrough_debug_interface___packet_logger" target="_top" xlink:title="SLNet::NatPunchthroughDebug\lInterface_PacketLogger">
<polygon fill="none" stroke="black" points="188,-49.5 188,-79.5 340,-79.5 340,-49.5 188,-49.5"/>
<text text-anchor="start" x="196" y="-67.5" font-family="Helvetica,sans-Serif" font-size="10.00">SLNet::NatPunchthroughDebug</text>
<text text-anchor="middle" x="264" y="-56.5" font-family="Helvetica,sans-Serif" font-size="10.00">Interface_PacketLogger</text>
</a>
</g>
</g>
<!-- Node1&#45;&gt;Node2 -->
<g id="edge1" class="edge"><title>Node1&#45;&gt;Node2</title>
<path fill="none" stroke="midnightblue" d="M162.147,-50.9445C170.742,-52.0997 179.426,-53.267 187.905,-54.4066"/>
<polygon fill="midnightblue" stroke="midnightblue" points="162.494,-47.4598 152.117,-49.5964 161.562,-54.3974 162.494,-47.4598"/>
</g>
<!-- Node3 -->
<g id="node3" class="node"><title>Node3</title>
<g id="a_node3"><a xlink:href="db/d81/group___n_a_t___p_u_n_c_h_t_h_r_o_u_g_h___g_r_o_u_p.xhtml#d5/d5d/struct_s_l_net_1_1_nat_punchthrough_debug_interface___printf" target="_top" xlink:title="SLNet::NatPunchthroughDebug\lInterface_Printf">
<polygon fill="none" stroke="black" points="188,-0.5 188,-30.5 340,-30.5 340,-0.5 188,-0.5"/>
<text text-anchor="start" x="196" y="-18.5" font-family="Helvetica,sans-Serif" font-size="10.00">SLNet::NatPunchthroughDebug</text>
<text text-anchor="middle" x="264" y="-7.5" font-family="Helvetica,sans-Serif" font-size="10.00">Interface_Printf</text>
</a>
</g>
</g>
<!-- Node1&#45;&gt;Node3 -->
<g id="edge2" class="edge"><title>Node1&#45;&gt;Node3</title>
<path fill="none" stroke="midnightblue" d="M162.147,-28.5133C170.742,-27.4043 179.426,-26.2837 187.905,-25.1897"/>
<polygon fill="midnightblue" stroke="midnightblue" points="161.587,-25.0564 152.117,-29.8075 162.483,-31.9989 161.587,-25.0564"/>
</g>
</g>
</svg>
