<?xml version="1.0" encoding="UTF-8" standalone="no"?>
<!DOCTYPE svg PUBLIC "-//W3C//DTD SVG 1.1//EN"
 "http://www.w3.org/Graphics/SVG/1.1/DTD/svg11.dtd">
<!-- Generated by graphviz version 2.38.0 (20140413.2041)
 -->
<!-- Title: Graphical Class Hierarchy Pages: 1 -->
<svg width="358pt" height="66pt"
 viewBox="0.00 0.00 358.00 66.00" xmlns="http://www.w3.org/2000/svg" xmlns:xlink="http://www.w3.org/1999/xlink">
<g id="graph0" class="graph" transform="scale(1 1) rotate(0) translate(4 62)">
<title>Graphical Class Hierarchy</title>
<!-- Node1 -->
<g id="node1" class="node"><title>Node1</title>
<g id="a_node1"><a xlink:href="d5/d9a/class_s_l_net_1_1_command_parser_interface.xhtml" target="_top" xlink:title="The interface used by command parsers.">
<polygon fill="none" stroke="black" points="0,-19.5 0,-38.5 159,-38.5 159,-19.5 0,-19.5"/>
<text text-anchor="middle" x="79.5" y="-26.5" font-family="Helvetica,sans-Serif" font-size="10.00">SLNet::CommandParserInterface</text>
</a>
</g>
</g>
<!-- Node2 -->
<g id="node2" class="node"><title>Node2</title>
<g id="a_node2"><a xlink:href="d5/da2/class_s_l_net_1_1_log_command_parser.xhtml" target="_top" xlink:title="Adds the ability to send logging output to a remote console.">
<polygon fill="none" stroke="black" points="203.5,-38.5 203.5,-57.5 341.5,-57.5 341.5,-38.5 203.5,-38.5"/>
<text text-anchor="middle" x="272.5" y="-45.5" font-family="Helvetica,sans-Serif" font-size="10.00">SLNet::LogCommandParser</text>
</a>
</g>
</g>
<!-- Node1&#45;&gt;Node2 -->
<g id="edge1" class="edge"><title>Node1&#45;&gt;Node2</title>
<path fill="none" stroke="midnightblue" d="M169.083,-37.8119C180.6,-38.9576 192.252,-40.1167 203.364,-41.222"/>
<polygon fill="midnightblue" stroke="midnightblue" points="169.311,-34.3174 159.014,-36.8103 168.618,-41.2831 169.311,-34.3174"/>
</g>
<!-- Node3 -->
<g id="node3" class="node"><title>Node3</title>
<g id="a_node3"><a xlink:href="db/d79/class_s_l_net_1_1_rak_net_command_parser.xhtml" target="_top" xlink:title="This allows a console client to call most of the functions in RakPeer.">
<polygon fill="none" stroke="black" points="195,-0.5 195,-19.5 350,-19.5 350,-0.5 195,-0.5"/>
<text text-anchor="middle" x="272.5" y="-7.5" font-family="Helvetica,sans-Serif" font-size="10.00">SLNet::RakNetCommandParser</text>
</a>
</g>
</g>
<!-- Node1&#45;&gt;Node3 -->
<g id="edge2" class="edge"><title>Node1&#45;&gt;Node3</title>
<path fill="none" stroke="midnightblue" d="M169.066,-20.1898C177.673,-19.3336 186.355,-18.4699 194.831,-17.6267"/>
<polygon fill="midnightblue" stroke="midnightblue" points="168.618,-16.7169 159.014,-21.1897 169.311,-23.6826 168.618,-16.7169"/>
</g>
</g>
</svg>
