<?xml version="1.0" encoding="UTF-8" standalone="no"?>
<!DOCTYPE svg PUBLIC "-//W3C//DTD SVG 1.1//EN"
 "http://www.w3.org/Graphics/SVG/1.1/DTD/svg11.dtd">
<!-- Generated by graphviz version 2.38.0 (20140413.2041)
 -->
<!-- Title: SLNet::NatPunchthroughDebugInterface_Printf Pages: 1 -->
<svg width="185pt" height="204pt"
 viewBox="0.00 0.00 185.00 204.00" xmlns="http://www.w3.org/2000/svg" xmlns:xlink="http://www.w3.org/1999/xlink">
<g id="graph0" class="graph" transform="scale(1 1) rotate(0) translate(4 200)">
<title>SLNet::NatPunchthroughDebugInterface_Printf</title>
<!-- Node1 -->
<g id="node1" class="node"><title>Node1</title>
<polygon fill="#bfbfbf" stroke="black" points="12.5,-0.5 12.5,-68.5 164.5,-68.5 164.5,-0.5 12.5,-0.5"/>
<text text-anchor="start" x="20.5" y="-56.5" font-family="Helvetica,sans-Serif" font-size="10.00">SLNet::NatPunchthroughDebug</text>
<text text-anchor="middle" x="88.5" y="-45.5" font-family="Helvetica,sans-Serif" font-size="10.00">Interface_Printf</text>
<polyline fill="none" stroke="black" points="12.5,-38.5 164.5,-38.5 "/>
<text text-anchor="middle" x="88.5" y="-26.5" font-family="Helvetica,sans-Serif" font-size="10.00"> </text>
<polyline fill="none" stroke="black" points="12.5,-19.5 164.5,-19.5 "/>
<text text-anchor="start" x="20.5" y="-7.5" font-family="Helvetica,sans-Serif" font-size="10.00">+ OnClientMessage()</text>
</g>
<!-- Node2 -->
<g id="node2" class="node"><title>Node2</title>
<g id="a_node2"><a xlink:href="../../db/d81/group___n_a_t___p_u_n_c_h_t_h_r_o_u_g_h___g_r_o_u_p.xhtml#d5/db1/struct_s_l_net_1_1_nat_punchthrough_debug_interface" target="_top" xlink:title="{SLNet::NatPunchthroughDebug\lInterface\n||+ NatPunchthroughDebugInterface()\l+ ~NatPunchthroughDebugInterface()\l+ OnClientMessage()\l}">
<polygon fill="none" stroke="black" points="0,-105.5 0,-195.5 177,-195.5 177,-105.5 0,-105.5"/>
<text text-anchor="start" x="8" y="-183.5" font-family="Helvetica,sans-Serif" font-size="10.00">SLNet::NatPunchthroughDebug</text>
<text text-anchor="middle" x="88.5" y="-172.5" font-family="Helvetica,sans-Serif" font-size="10.00">Interface</text>
<polyline fill="none" stroke="black" points="0,-165.5 177,-165.5 "/>
<text text-anchor="middle" x="88.5" y="-153.5" font-family="Helvetica,sans-Serif" font-size="10.00"> </text>
<polyline fill="none" stroke="black" points="0,-146.5 177,-146.5 "/>
<text text-anchor="start" x="8" y="-134.5" font-family="Helvetica,sans-Serif" font-size="10.00">+ NatPunchthroughDebugInterface()</text>
<text text-anchor="start" x="8" y="-123.5" font-family="Helvetica,sans-Serif" font-size="10.00">+ ~NatPunchthroughDebugInterface()</text>
<text text-anchor="start" x="8" y="-112.5" font-family="Helvetica,sans-Serif" font-size="10.00">+ OnClientMessage()</text>
</a>
</g>
</g>
<!-- Node2&#45;&gt;Node1 -->
<g id="edge1" class="edge"><title>Node2&#45;&gt;Node1</title>
<path fill="none" stroke="midnightblue" d="M88.5,-95.3164C88.5,-86.2849 88.5,-77.1589 88.5,-68.8483"/>
<polygon fill="none" stroke="midnightblue" points="85.0001,-95.4246 88.5,-105.425 92.0001,-95.4247 85.0001,-95.4246"/>
</g>
</g>
</svg>
