<?xml version="1.0" encoding="UTF-8" standalone="no"?>
<!DOCTYPE svg PUBLIC "-//W3C//DTD SVG 1.1//EN"
 "http://www.w3.org/Graphics/SVG/1.1/DTD/svg11.dtd">
<!-- Generated by graphviz version 2.38.0 (20140413.2041)
 -->
<!-- Title: RNS2_Windows_Linux_360 Pages: 1 -->
<svg width="145pt" height="204pt"
 viewBox="0.00 0.00 145.00 204.00" xmlns="http://www.w3.org/2000/svg" xmlns:xlink="http://www.w3.org/1999/xlink">
<g id="graph0" class="graph" transform="scale(1 1) rotate(0) translate(4 200)">
<title>RNS2_Windows_Linux_360</title>
<!-- Node1 -->
<g id="node1" class="node"><title>Node1</title>
<polygon fill="#bfbfbf" stroke="black" points="0,-138.5 0,-195.5 137,-195.5 137,-138.5 0,-138.5"/>
<text text-anchor="middle" x="68.5" y="-183.5" font-family="Helvetica,sans-Serif" font-size="10.00">RNS2_Windows_Linux_360</text>
<polyline fill="none" stroke="black" points="0,-176.5 137,-176.5 "/>
<text text-anchor="middle" x="68.5" y="-164.5" font-family="Helvetica,sans-Serif" font-size="10.00"> </text>
<polyline fill="none" stroke="black" points="0,-157.5 137,-157.5 "/>
<text text-anchor="middle" x="68.5" y="-145.5" font-family="Helvetica,sans-Serif" font-size="10.00"> </text>
</g>
<!-- Node2 -->
<g id="node2" class="node"><title>Node2</title>
<g id="a_node2"><a xlink:href="../../d1/da2/class_s_l_net_1_1_r_n_s2___linux.xhtml" target="_top" xlink:title="{SLNet::RNS2_Linux\n||+ Bind()\l+ Send()\l+ GetMyIP()\l# GetMyIPIPV4()\l# GetMyIPIPV4And6()\l}">
<polygon fill="none" stroke="black" points="12,-0.5 12,-101.5 125,-101.5 125,-0.5 12,-0.5"/>
<text text-anchor="middle" x="68.5" y="-89.5" font-family="Helvetica,sans-Serif" font-size="10.00">SLNet::RNS2_Linux</text>
<polyline fill="none" stroke="black" points="12,-82.5 125,-82.5 "/>
<text text-anchor="middle" x="68.5" y="-70.5" font-family="Helvetica,sans-Serif" font-size="10.00"> </text>
<polyline fill="none" stroke="black" points="12,-63.5 125,-63.5 "/>
<text text-anchor="start" x="20" y="-51.5" font-family="Helvetica,sans-Serif" font-size="10.00">+ Bind()</text>
<text text-anchor="start" x="20" y="-40.5" font-family="Helvetica,sans-Serif" font-size="10.00">+ Send()</text>
<text text-anchor="start" x="20" y="-29.5" font-family="Helvetica,sans-Serif" font-size="10.00">+ GetMyIP()</text>
<text text-anchor="start" x="20" y="-18.5" font-family="Helvetica,sans-Serif" font-size="10.00"># GetMyIPIPV4()</text>
<text text-anchor="start" x="20" y="-7.5" font-family="Helvetica,sans-Serif" font-size="10.00"># GetMyIPIPV4And6()</text>
</a>
</g>
</g>
<!-- Node1&#45;&gt;Node2 -->
<g id="edge1" class="edge"><title>Node1&#45;&gt;Node2</title>
<path fill="none" stroke="midnightblue" d="M68.5,-128.354C68.5,-119.796 68.5,-110.578 68.5,-101.608"/>
<polygon fill="none" stroke="midnightblue" points="65.0001,-128.404 68.5,-138.404 72.0001,-128.404 65.0001,-128.404"/>
</g>
</g>
</svg>
